<?xml version="1.0" encoding="utf-8"?>
<!-- Generator: Adobe Illustrator 24.0.1, SVG Export Plug-In . SVG Version: 6.00 Build 0)  -->
<svg version="1.1" id="Layer_1" focusable="false" xmlns="http://www.w3.org/2000/svg" xmlns:xlink="http://www.w3.org/1999/xlink"
	 x="0px" y="0px" viewBox="0 0 576 512" style="enable-background:new 0 0 576 512;" xml:space="preserve">
<path d="M215.03,71.05L126.06,160H24c-13.26,0-24,10.74-24,24v144c0,13.25,10.74,24,24,24h102.06l88.97,88.95
	c15.03,15.03,40.97,4.47,40.97-16.97V88.02C256,66.56,230.04,56.04,215.03,71.05z M448.35,19.97c-11.17-7.33-26.18-4.24-33.51,6.95
	c-7.34,11.17-4.22,26.18,6.95,33.51c66.27,43.49,105.82,116.6,105.82,195.58S488.06,408.1,421.79,451.59
	c-11.17,7.32-14.29,22.34-6.95,33.5c7.04,10.71,21.93,14.56,33.51,6.95C528.27,439.58,576,351.33,576,256S528.27,72.43,448.35,19.97
	z M480,256c0-63.53-32.06-121.94-85.77-156.24c-11.19-7.14-26.03-3.82-33.12,7.46s-3.78,26.21,7.41,33.36
	C408.27,165.97,432,209.11,432,256s-23.73,90.03-63.48,115.42c-11.19,7.14-14.5,22.07-7.41,33.36c6.51,10.36,21.12,15.14,33.12,7.46
	C447.94,377.94,480,319.54,480,256z M338.23,179.13c-11.58-6.33-26.19-2.16-32.61,9.45c-6.39,11.61-2.16,26.2,9.45,32.61
	C327.98,228.28,336,241.63,336,256c0,14.38-8.02,27.72-20.92,34.81c-11.61,6.41-15.84,21-9.45,32.61
	c6.43,11.66,21.05,15.8,32.61,9.45c28.23-15.55,45.77-45,45.77-76.88S366.47,194.67,338.23,179.13L338.23,179.13z"/>
</svg>
