<?xml version="1.0" encoding="utf-8"?>
<!-- Generator: Adobe Illustrator 24.0.1, SVG Export Plug-In . SVG Version: 6.00 Build 0)  -->
<svg version="1.1" id="Layer_1" focusable="false" xmlns="http://www.w3.org/2000/svg" xmlns:xlink="http://www.w3.org/1999/xlink"
	 x="0px" y="0px" viewBox="0 0 448 512" style="enable-background:new 0 0 448 512;" xml:space="preserve">
<path d="M224,202.66c-29.46,0.01-53.33,23.9-53.32,53.36c0.01,29.46,23.9,53.33,53.36,53.32c29.45-0.01,53.32-23.89,53.32-53.34
	C277.34,226.54,253.46,202.67,224,202.66z M348.71,161.66c-5.49-13.91-16.5-24.92-30.41-30.41c-21-8.29-71-6.43-94.3-6.43
	s-73.25-1.93-94.31,6.43c-13.91,5.49-24.92,16.5-30.41,30.41c-8.28,21-6.43,71.05-6.43,94.33s-1.85,73.27,6.47,94.34
	c5.49,13.91,16.5,24.92,30.41,30.41c21,8.29,71,6.43,94.31,6.43s73.24,1.93,94.3-6.43c13.91-5.49,24.92-16.5,30.41-30.41
	c8.35-21,6.43-71.05,6.43-94.33s1.92-73.26-6.43-94.33L348.71,161.66z M224,338c-45.29,0-82-36.71-82-82s36.71-82,82-82
	s82,36.71,82,82c0.06,45.23-36.57,81.94-81.8,82C224.13,338,224.07,338,224,338z M309.38,189.7c-10.57,0.01-19.14-8.56-19.15-19.13
	s8.56-19.14,19.13-19.15c10.57-0.01,19.14,8.56,19.15,19.13c0,0,0,0.01,0,0.01c0.04,10.55-8.47,19.14-19.02,19.18
	c-0.02,0-0.05,0-0.07,0L309.38,189.7z M400,32H48C21.49,32,0,53.49,0,80v352c0,26.51,21.49,48,48,48h352c26.51,0,48-21.49,48-48V80
	C448,53.49,426.51,32,400,32z M382.88,322c-1.29,25.63-7.14,48.34-25.85,67s-41.4,24.63-67,25.85c-26.41,1.49-105.59,1.49-132,0
	c-25.63-1.29-48.26-7.15-67-25.85s-24.63-41.42-25.85-67c-1.49-26.42-1.49-105.61,0-132c1.29-25.63,7.07-48.34,25.85-67
	s41.47-24.56,67-25.78c26.41-1.49,105.59-1.49,132,0c25.63,1.29,48.33,7.15,67,25.85s24.63,41.42,25.85,67.05
	C384.37,216.44,384.37,295.56,382.88,322z"/>
</svg>
