<?xml version="1.0" encoding="utf-8"?>
<!-- Generator: Adobe Illustrator 24.0.1, SVG Export Plug-In . SVG Version: 6.00 Build 0)  -->
<svg version="1.1" id="Layer_1" focusable="false" xmlns="http://www.w3.org/2000/svg" xmlns:xlink="http://www.w3.org/1999/xlink"
	 x="0px" y="0px" viewBox="0 0 640 512" style="enable-background:new 0 0 640 512;" xml:space="preserve">
<style type="text/css">
	.st0{fill:#333333;}
</style>
<path class="st0" d="M622.34,153.2L343.4,67.5c-15.2-4.67-31.6-4.67-46.79,0L17.66,153.2c-23.54,7.23-23.54,38.36,0,45.59
	l48.63,14.94c-10.67,13.19-17.23,29.28-17.88,46.9C38.78,266.15,32,276.11,32,288c0,10.78,5.68,19.85,13.86,25.65L20.33,428.53
	C18.11,438.52,25.71,448,35.94,448h56.11c10.24,0,17.84-9.48,15.62-19.47L82.14,313.65C90.32,307.85,96,298.78,96,288
	c0-11.57-6.47-21.25-15.66-26.87c0.76-15.02,8.44-28.3,20.69-36.72L296.6,284.5c9.06,2.78,26.44,6.25,46.79,0l278.95-85.7
	C645.89,191.56,645.89,160.44,622.34,153.2L622.34,153.2z M352.79,315.09c-28.53,8.76-52.84,3.92-65.59,0l-145.02-44.55L128,384
	c0,35.35,85.96,64,192,64s192-28.65,192-64l-14.18-113.47L352.79,315.09z"/>
</svg>
