<?xml version="1.0" encoding="utf-8"?>
<!-- Generator: Adobe Illustrator 24.0.1, SVG Export Plug-In . SVG Version: 6.00 Build 0)  -->
<svg version="1.1" id="Layer_1" xmlns="http://www.w3.org/2000/svg" xmlns:xlink="http://www.w3.org/1999/xlink" x="0px" y="0px"
	 viewBox="0 0 100 100" style="enable-background:new 0 0 100 100;" xml:space="preserve">
<g>
	<path d="M51.45,36.85c-6,0-11.6,4.1-13.4,10.8c-0.2,1-0.5,2.2-0.5,3.6v8.7c0,1.1,0.2,2.2,0.4,3.2c1.7,6.1,6.8,10.3,13.2,10.3
		c9.2,0,14.7-7.5,14.7-18.6C65.85,45.15,60.85,36.85,51.45,36.85z"/>
	<path d="M50,0C22.39,0,0,22.39,0,50s22.39,50,50,50s50-22.39,50-50S77.61,0,50,0z M52.95,80.45c-7,0-12.6-2.7-16.2-9.1h-0.3l-0.4,8
		h-7.6c0.2-3.3,0.4-8.2,0.4-12.5V8.35h8.7v30.4h0.2c3.1-5.4,8.7-8.9,16.5-8.9c12,0,20.5,10,20.4,24.7
		C74.65,71.85,63.75,80.45,52.95,80.45z"/>
</g>
</svg>
